<svg width="64" height="64" viewBox="0 0 64 64" fill="none" xmlns="http://www.w3.org/2000/svg">
<rect width="64" height="64" rx="4" fill="#005FAF"/>
<path fill-rule="evenodd" clip-rule="evenodd" d="M19.9124 24.7151C15.3937 22.4131 9.99714 22.4771 5.69171 24.6147C3.47158 28.523 3.40089 33.9913 5.69171 38.8346C10.435 41.235 15.6811 41.0768 19.9458 38.935C21.9501 34.823 22.2811 29.8749 19.9124 24.7151ZM12.2808 36.3853L12.013 36.3884C11.9466 35.6483 11.7697 35.0262 11.3902 34.5502C10.6995 33.684 9.72257 33.4204 8.85254 33.1857C7.53039 32.829 6.45512 32.5388 7.00645 30.3019C7.48176 28.4057 12.9033 27.2874 12.2808 36.3853ZM7.01287 32.7221C7.2306 33.1652 8.10517 33.3961 8.96786 33.6238L8.96788 33.6238C9.61084 33.7935 10.2472 33.9615 10.6001 34.2143C11.9111 35.1534 11.7229 36.3887 11.7229 36.3887H11.4137C11.0353 35.2288 10.2318 35.361 9.34918 35.5063C8.81221 35.5946 8.24598 35.6878 7.72838 35.4978C6.86931 35.1922 6.24559 33.8678 7.01287 32.7221ZM11.3506 38.8042L11.4786 37.7887L11.709 37.8058L11.6065 38.9236C11.5032 39.416 10.769 39.3502 10.6764 38.881L10.7958 37.7205L11.0689 37.7633L10.9495 38.7359C10.9646 39.0579 11.2875 39.0386 11.3506 38.8042ZM10.1246 39.0815L9.86194 39.0181C9.86815 38.9743 9.8836 38.9214 9.90011 38.8648C9.96543 38.6408 10.0475 38.3595 9.64138 38.3595L9.49976 38.9366L9.20997 38.8823L9.51783 37.4967C10.2703 37.5787 10.3362 37.7881 10.3511 38.0129C10.3214 38.1873 10.2749 38.309 10.1247 38.3388C10.2426 38.4459 10.2033 38.6316 10.1639 38.8173C10.1446 38.9085 10.1253 38.9996 10.1246 39.0815ZM8.4565 37.5296C8.38412 37.6256 8.23922 37.9611 8.21824 38.2285C8.19593 38.5119 8.46814 38.4522 8.53592 38.4191C8.59061 38.3926 8.63123 38.165 8.63123 38.165L8.44062 38.1014L8.50416 37.9109L8.93315 38.0539L8.72665 38.7688L8.55193 38.721L8.56781 38.6098C8.35393 38.7073 7.9624 38.6342 7.91645 38.3875C7.87049 38.1892 8.00969 37.5882 8.23413 37.3073C8.45226 37.0343 8.98371 37.3012 8.99668 37.4662C9.00954 37.6306 8.94467 37.8156 8.94467 37.8156L8.7446 37.7779C8.7446 37.7779 8.75685 37.7185 8.77431 37.6249C8.79274 37.5257 8.53411 37.4264 8.4565 37.5296ZM12.3576 38.6931L12.3064 39.3076L12.0931 39.2992L12.1699 37.8399C12.7025 37.8509 13.0078 37.9246 12.9976 38.3008C12.97 38.7476 12.6518 38.7185 12.4428 38.6994C12.4115 38.6966 12.3826 38.6939 12.3576 38.6931ZM12.8885 36.3886H12.5317C12.5247 36.1091 12.5311 35.7783 12.5382 35.4141C12.5631 34.1322 12.5961 32.4372 12.079 31.1124C11.8261 30.4642 11.3786 29.9952 10.9602 29.5568C10.5464 29.1231 10.161 28.7192 10.0207 28.2012C9.57397 26.5524 10.3342 24.7684 12.8885 24.631C15.103 24.8584 15.7833 26.5679 15.4056 28.1596C15.0657 28.9925 14.7257 29.3269 14.363 29.6837C14.0326 30.0086 13.6834 30.3521 13.298 31.1076C12.7696 32.4672 12.8249 34.1642 12.8679 35.4825V35.4826C12.8786 35.812 12.8886 36.1177 12.8885 36.3886ZM16.8461 38.7273L16.5986 38.8127L16.5217 37.3449L16.8119 37.2682L17.5287 38.4799L17.3324 38.6079L17.0934 38.2667L16.8204 38.369L16.8461 38.7273ZM13.9589 36.3886H13.6735C13.8236 34.3184 15.5373 33.8557 16.8555 33.4997C17.6039 33.2976 18.2248 33.1299 18.3598 32.7221C19.0044 33.8386 18.7727 34.78 18.0996 35.2625C17.3404 35.8071 16.5954 35.6744 15.9273 35.5554C15.1235 35.4122 14.4309 35.2888 13.9589 36.3886ZM15.4723 38.0277L15.6003 38.7019C15.6712 38.8401 15.7218 38.8326 15.8183 38.8182C15.8302 38.8164 15.8428 38.8145 15.8563 38.8128C15.9909 38.7154 15.971 38.6204 15.9457 38.4995L15.9417 38.48L16.1891 38.4459C16.2536 38.9343 16.0214 38.9841 15.8478 39.0176C15.4754 39.0443 15.4024 38.9718 15.3017 38.4886C15.2964 38.4513 15.2907 38.4138 15.2851 38.3764C15.2284 37.9991 15.173 37.631 15.4894 37.5585C15.9857 37.4827 16.025 37.667 16.0608 37.8348L16.0608 37.8348C16.0662 37.86 16.0714 37.8848 16.0782 37.9083L15.8307 37.9511C15.7912 37.7964 15.7343 37.735 15.6088 37.7464C15.4945 37.7989 15.4475 37.8839 15.4723 38.0277ZM14.9517 38.7273C14.9636 38.9399 14.8915 39.081 14.7554 39.1284L14.1751 39.2479L13.9447 37.8399C13.961 37.8372 13.9859 37.831 14.0172 37.8231L14.0172 37.8231C14.2151 37.7733 14.667 37.6595 14.7895 37.9936C14.8579 38.2247 14.7901 38.3108 14.7097 38.4131L14.7042 38.4202C14.8612 38.4706 14.9142 38.5929 14.9517 38.7273ZM13.4616 31.6616C14.7543 28.0216 17.7125 28.6648 18.3686 30.302C18.9744 32.5159 17.8574 32.8286 16.4971 33.2095C15.8389 33.3938 15.1238 33.594 14.5192 34.0333C13.8185 34.6427 13.4498 35.3418 13.4443 36.4017H13.1267L13.1238 36.0953C13.1053 34.1212 13.0919 32.7022 13.4616 31.6616ZM16.7778 38.1726L17.0424 38.0958L16.7522 37.6949L16.7778 38.1726ZM12.4343 38.1043L12.3831 38.4628C12.4169 38.4595 12.4527 38.4645 12.4883 38.4695C12.5915 38.4839 12.6935 38.4982 12.7416 38.3091C12.7367 38.111 12.5859 38.1001 12.4343 38.1043ZM14.5422 38.0958C14.5202 37.9982 14.4387 37.9263 14.2349 37.9935L14.3032 38.3603C14.4706 38.3232 14.5567 38.2241 14.5422 38.0958ZM9.78046 37.7956L9.69898 38.1216C9.73195 38.1229 9.76634 38.1307 9.80073 38.1384L9.80074 38.1385C9.90296 38.1615 10.0052 38.1846 10.0703 38.0401C10.0761 37.9191 10.081 37.7985 9.78046 37.7956ZM14.3629 38.6335L14.4227 39.009C14.5625 39.0125 14.6901 38.9285 14.6531 38.753C14.6175 38.5843 14.4757 38.6109 14.3629 38.6335ZM48.2539 29.9224L50.4693 26.0115L47.4716 24.4478L47.0806 24.9304C45.4634 24.0744 36.9953 25.2563 36.4651 33.6098C36.782 40.6173 44.6342 39.3568 45.4044 38.9121L47.564 34.4477C45.4489 35.8409 41.118 36.5098 40.9348 32.3247C41.3147 28.8737 45.3892 27.5849 48.2539 29.9224ZM59.309 24.5218H52.4984L50.3335 28.6239H51.4457L46.313 38.857H51.2811L52.3011 36.3887H55.3507L55.4267 38.857H60L59.309 24.5218ZM53.6828 33.0656L55.3506 29.0845L55.4266 33.0656H53.6828ZM34.401 31.3722C37.9436 29.7653 38.4675 24.5218 33.4284 24.5218H27.5928L25.4362 28.7505H26.4511L23.8716 38.857H30.6374C35.5735 38.8992 37.7934 33.0868 34.401 31.3722ZM30.6374 35.178H28.946L29.5802 32.8946H31.1871C33.09 33.2751 31.9061 35.2626 30.6374 35.178ZM31.6523 30.315H30.2146L30.6374 28.3275H32.2443C33.7969 28.7081 32.4559 30.3996 31.6523 30.315Z" fill="white"/>
</svg>
