<svg width="64" height="64" viewBox="0 0 64 64" fill="none" xmlns="http://www.w3.org/2000/svg">
<path d="M0 4C0 1.79086 1.79086 0 4 0H60C62.2091 0 64 1.79086 64 4V60C64 62.2091 62.2091 64 60 64H4C1.79086 64 0 62.2091 0 60V4Z" fill="#EE4E2C"/>
<path fill-rule="evenodd" clip-rule="evenodd" d="M6.69313 23.9328H24.7756C25.9725 23.9328 26.9557 24.916 26.9557 26.113V38.7664C26.9557 39.9634 25.9725 40.9466 24.7756 40.9466H6.18015C4.98321 40.9466 4 39.9634 4 38.7664V23.1634C4 22.5649 4.47023 22.1802 5.02595 22.1374L21.6977 20C22.2534 20 22.7237 20.4702 22.7237 21.026V22.7786H5.66718C5.66718 23.5053 5.88092 23.9328 6.69313 23.9328ZM12.2931 36.4153C13.3618 37.5695 15.2855 38.0824 16.8244 37.7832C18.2351 37.5267 19.3893 36.1588 19.1756 34.7053C18.8763 32.8672 17.0809 31.9695 15.4992 31.4992C14.345 31.1573 12.6779 30.345 13.7893 28.8916C14.5588 27.8656 16.6107 27.7374 17.4656 28.7206C17.9359 29.2763 18.7053 28.4641 18.2351 27.9511C17.1664 26.7542 14.9435 26.7115 13.6183 27.5664C12.3786 28.3786 11.8656 30.2595 12.9344 31.4137C13.5321 32.0693 14.382 32.3161 15.2291 32.5621C16.2602 32.8616 17.2872 33.1598 17.8504 34.1924C18.6198 35.5176 17.4229 36.7145 16.0977 36.7573C15.029 36.7573 13.7893 36.4153 13.0626 35.6458C12.5924 35.1328 11.8229 35.9023 12.2931 36.4153ZM46.278 23.8901C46.6627 23.4626 47.2612 23.1633 47.9024 23.1633C49.0994 23.1633 50.0826 24.1038 50.0826 25.258C50.0826 26.4122 49.0994 27.3527 47.9024 27.3527C47.2612 27.3527 46.6627 27.0962 46.278 26.6687V29.3191C46.278 29.7893 45.5513 29.7893 45.5513 29.3191V23.3771C45.5513 22.9069 46.278 22.9069 46.278 23.3771V23.8901ZM46.4917 25.258C46.4917 25.9847 47.1329 26.5832 47.9024 26.5832C48.6719 26.5832 49.3131 25.9847 49.2704 25.258C49.2704 25.087 49.2276 24.916 49.1421 24.745C48.9284 24.2748 48.4154 23.9328 47.8597 23.9328H47.6459C47.0047 24.0183 46.4917 24.574 46.4917 25.258ZM51.7496 26.9679C52.6046 27.6092 53.9725 27.3954 54.8275 26.9252C55.255 26.7115 54.8702 26.0702 54.4428 26.3267C53.887 26.626 53.1603 26.7542 52.5191 26.5832C52.0489 26.4122 51.7924 26.0275 51.7069 25.6H54.742C54.9557 25.6 55.1267 25.429 55.1267 25.258C55.1267 24.2748 54.6137 23.4199 53.545 23.2061C52.6473 23.0351 51.5786 23.5054 51.1939 24.3176C50.7664 25.2153 50.9374 26.3695 51.7496 26.9679ZM51.7496 24.8305C51.9206 24.2321 52.5191 23.9328 53.1176 23.8901C53.8015 23.8473 54.229 24.3176 54.3145 24.916H51.7069C51.7496 24.8733 51.7496 24.8305 51.7496 24.8305ZM59.658 26.9252C58.8031 27.3954 57.4351 27.6092 56.5802 26.9679C55.8107 26.3695 55.6397 25.1725 56.0244 24.3176C56.4092 23.5054 57.4779 23.0351 58.3756 23.2061C59.4443 23.4199 59.9573 24.2748 59.9573 25.258C59.9573 25.429 59.7863 25.6 59.5725 25.6H56.5374C56.6229 26.0275 56.8794 26.4122 57.3496 26.5832C57.9909 26.7542 58.7176 26.626 59.2733 26.3267C59.7008 26.0702 60.0855 26.7115 59.658 26.9252ZM57.9909 23.8901C57.3924 23.9328 56.7939 24.2321 56.6229 24.8305C56.6229 24.8305 56.6229 24.8733 56.5802 24.916H59.1878C59.1023 24.3176 58.6748 23.8473 57.9909 23.8901ZM42.5161 27.3954C43.713 27.3954 44.6962 26.455 44.6962 25.3008C44.6962 24.1466 43.713 23.2061 42.5161 23.2061C41.3191 23.2061 40.3359 24.1466 40.3359 25.3008C40.3359 26.455 41.3191 27.3954 42.5161 27.3954ZM42.5161 23.9328C43.2856 23.9328 43.9268 24.5313 43.9268 25.258C43.9268 25.9847 43.2856 26.5832 42.5161 26.5832C41.7466 26.5832 41.1054 25.9847 41.1054 25.258C41.1482 24.5313 41.7466 23.9328 42.5161 23.9328ZM36.2748 24.5313V27.0534C36.2748 27.4809 35.5481 27.4809 35.5054 27.0534V20.7267C35.5054 20.2565 36.2321 20.2565 36.2321 20.7267V23.5481C37.1298 22.9496 38.284 22.9924 38.797 23.3771C38.797 23.3771 39.4382 23.7191 39.4382 24.5741V27.0107C39.4382 27.4809 38.7115 27.4809 38.7115 27.0107V24.6168C38.7115 24.1466 38.284 23.9328 38.284 23.9328C37.771 23.7191 36.8306 23.8046 36.2748 24.5313ZM33.4108 27.3527C34.3513 27.1817 35.1207 26.284 34.9497 25.3435C34.736 24.1893 33.5818 23.5908 32.5131 23.2916C31.7436 23.0351 30.6322 22.5649 31.3589 21.5817C31.8719 20.9404 33.2398 20.855 33.8383 21.4534C34.1375 21.7954 34.6505 21.2824 34.3513 20.9404C33.6246 20.171 32.1284 20.1282 31.2734 20.684C30.4184 21.1969 30.1192 22.3939 30.8032 23.1633C31.2094 23.589 31.7821 23.7519 32.3507 23.9137C33.0385 24.1095 33.7204 24.3035 34.0948 24.9588C34.6078 25.8137 33.7955 26.5832 32.9406 26.6259C32.2566 26.6259 31.4017 26.4122 30.9314 25.8992C30.5894 25.5572 30.0765 26.0702 30.4184 26.4122C31.1024 27.2244 32.3849 27.5237 33.4108 27.3527ZM52.0063 32.1832L54.8276 37.5267L57.649 32.1832H60.0002L53.417 44.6229H51.1086L53.588 39.9206L49.4841 32.1832H52.0063ZM34.8641 28.8488H30.29V40.9466H32.2137V37.3985H34.8641C37.6 37.3985 39.7801 35.4748 39.7801 33.1237C39.7801 30.7725 37.6 28.8488 34.8641 28.8488ZM34.8641 35.4321H32.2137V30.8153H34.8641C36.3603 30.8153 37.5572 31.8412 37.5572 33.1237C37.5572 34.4061 36.3603 35.4321 34.8641 35.4321ZM44.2687 32.226C45.3374 32.226 46.3207 32.6107 47.0901 33.2519V32.2687H48.8V40.9038H47.0901V39.9206C46.3207 40.5618 45.3374 40.9466 44.2687 40.9466C41.8321 40.9466 39.9084 38.9802 39.9084 36.5863C39.9084 34.1924 41.8749 32.226 44.2687 32.226ZM41.7466 36.5863C41.7466 37.9969 42.8581 39.1084 44.2687 39.1084C45.6794 39.1084 46.7909 37.9969 46.7909 36.5863C46.7909 35.1756 45.6794 34.0641 44.2687 34.0641C42.8581 34.0641 41.7466 35.1756 41.7466 36.5863Z" fill="white"/>
</svg>
