<svg width="64" height="64" viewBox="0 0 64 64" fill="none" xmlns="http://www.w3.org/2000/svg">
<rect width="64" height="64" rx="4" fill="white"/>
<path fill-rule="evenodd" clip-rule="evenodd" d="M12.3399 39.2825V41.4525H11.8391C11.8391 41.4525 10.9836 41.3274 10.9836 41.703C10.9836 42.0786 11.3592 42.2037 11.8809 42.6211C12.4025 43.0384 13.2163 43.9982 13.2163 45.104C13.2163 46.2099 12.4859 47.6287 10.1908 47.6287C7.8956 47.6287 8.08345 47.3783 8.08345 47.3783V44.937C8.08345 44.937 8.8555 45.1875 9.56488 45.1875C10.2743 45.1875 10.3995 44.958 10.3995 44.7284C10.3995 44.4989 8 43.0396 8 41.579C8 41.0001 8.14613 39.0113 10.7544 39.0113C11.7783 39.0315 12.3399 39.2825 12.3399 39.2825Z" fill="#D5232B"/>
<path fill-rule="evenodd" clip-rule="evenodd" d="M14.0532 39.0105H16.7008V47.6279H14.0532V39.0105Z" fill="#D5232B"/>
<path fill-rule="evenodd" clip-rule="evenodd" d="M28.3021 45.437H30.7829V47.6279H28.3021H25.8214V39.0105H28.3021H30.7829V41.2014H28.3021V42.2238H30.4722V44.4146H28.3021V45.437Z" fill="#D5232B"/>
<path fill-rule="evenodd" clip-rule="evenodd" d="M31.914 39.0105H32.0165H34.4038H35.1867C37.0171 39.0105 38.5146 40.5082 38.5146 42.3385C38.5146 44.1687 37.1747 45.6664 35.3444 45.6664H34.5615V47.6278H31.914V39.0105ZM34.5616 41.3056V43.3715H34.708C35.2761 43.3715 35.741 42.9066 35.741 42.3386V42.3385C35.741 41.7704 35.2761 41.3056 34.708 41.3056H34.5616Z" fill="#D5232B"/>
<path fill-rule="evenodd" clip-rule="evenodd" d="M22.2304 39C23.3709 39 24.4077 39.4433 25.1784 40.1668L23.6635 42.0953C23.3191 41.6889 22.8049 41.4308 22.2304 41.4308C21.1933 41.4308 20.3525 42.2715 20.3525 43.3086C20.3525 44.3457 21.1933 45.1864 22.2304 45.1864C22.8049 45.1864 23.3191 44.9283 23.6635 44.5219L25.1784 46.4504C24.4077 47.1739 23.3709 47.6172 22.2304 47.6172C19.8508 47.6172 17.9217 45.6881 17.9217 43.3085C17.9217 40.9289 19.8508 39 22.2304 39Z" fill="#D5232B"/>
<path fill-rule="evenodd" clip-rule="evenodd" d="M42.0693 39.0105L46.591 47.6279H37.5476L42.0693 39.0105Z" fill="#D5232B"/>
<path fill-rule="evenodd" clip-rule="evenodd" d="M40.9792 47.628H39.2434L42.1381 43.2122L44.2448 45.5082L40.9792 47.628Z" fill="#E6E6E6"/>
<path fill-rule="evenodd" clip-rule="evenodd" d="M40.9448 45.0326L42.1381 43.2122L42.5842 43.6983L40.9448 45.0327V45.0326Z" fill="#B3B3B3"/>
<path fill-rule="evenodd" clip-rule="evenodd" d="M42.7068 40.2254L43.3244 41.4025L40.9448 45.0327L39.6499 43.6214L40.7733 41.4805L42.7068 40.2254Z" fill="white"/>
<path fill-rule="evenodd" clip-rule="evenodd" d="M47.5214 39.0105H50.1689H51.7447V41.2847H50.1689V47.6279H47.5214V41.2847H45.9456V39.0105H47.5214Z" fill="#D5232B"/>
<path fill-rule="evenodd" clip-rule="evenodd" d="M32.079 49.6085L32.1414 49.1832H29.7264L29.662 49.6085H30.148H31.0312H32.079ZM29.5031 50.6596L29.2088 52.6053H31.6971L31.7595 52.1799H29.76L29.9261 51.0751H31.6469L31.7098 50.6595H31.0824H29.9891H29.5031V50.6596ZM34.8562 50.772L36.6218 49.1832H35.9863L33.8884 51.0751L34.1726 49.1832H33.6837L33.166 52.6053H33.6549L33.7875 51.7155L34.5089 51.0701L35.625 52.6052H36.1725L34.8467 50.7817L34.8562 50.772ZM38.3474 52.6444C39.1981 52.6444 39.775 52.2435 39.7425 51.5786C39.6917 50.5373 37.9534 50.8795 37.9184 50.1609C37.9008 49.7991 38.246 49.5596 38.8082 49.5596C39.1553 49.5596 39.4874 49.6525 39.7505 49.8334L39.9264 49.4325C39.6387 49.2468 39.2329 49.144 38.8124 49.144C37.9764 49.144 37.4096 49.5498 37.4415 50.2049C37.4949 51.3 39.232 50.9333 39.2668 51.6471C39.2848 52.0186 38.9236 52.2288 38.3712 52.2288C37.9459 52.2288 37.5132 52.0773 37.2424 51.8377L37.0463 52.2288C37.3071 52.4635 37.8244 52.6444 38.3474 52.6444ZM42.796 49.1832H41.5249L41.0073 52.6053H41.4962L41.651 51.5689H42.5652C43.5527 51.5689 44.144 51.0605 44.1013 50.1854C44.0703 49.5498 43.5929 49.1832 42.796 49.1832ZM42.5542 51.1435H41.7182L41.9513 49.6085H42.7726C43.2908 49.6085 43.5944 49.8187 43.6144 50.2293C43.6438 50.8306 43.2533 51.1435 42.5542 51.1435ZM48.2736 50.1854C48.2426 49.5499 47.7652 49.1832 46.9635 49.1832H45.6876L45.17 52.6053H45.6637L45.8181 51.5591H46.7322H46.8251L47.4725 52.6053H47.9907L47.3106 51.4906C47.9478 51.3244 48.3067 50.8649 48.2736 50.1854ZM46.7266 51.1435H45.8808L46.114 49.6085H46.9401C47.4632 49.6085 47.7668 49.8187 47.7868 50.2293C47.8162 50.8306 47.4256 51.1435 46.7266 51.1435ZM52.2761 49.6085L52.3385 49.1832H49.9235L49.8592 49.6085H50.3451H52.2761ZM49.7002 50.6596L49.4059 52.6053H51.8943L51.9567 52.1799H49.9572L50.1233 51.0751H51.8442L51.907 50.6595H50.1862H49.7002V50.6596ZM54.421 52.6444C55.2717 52.6444 55.8485 52.2435 55.8161 51.5786C55.7653 50.5373 54.027 50.8795 53.992 50.1609C53.9743 49.7991 54.3196 49.5596 54.8818 49.5596C55.2289 49.5596 55.5609 49.6525 55.824 49.8334L56 49.4325C55.7123 49.2468 55.3064 49.144 54.886 49.144C54.05 49.144 53.4832 49.5498 53.5151 50.2049C53.5685 51.3 55.3056 50.9333 55.3403 51.6471C55.3584 52.0186 54.9972 52.2288 54.4448 52.2288C54.0194 52.2288 53.5867 52.0773 53.3159 51.8377L53.1199 52.2288C53.3806 52.4635 53.8979 52.6444 54.421 52.6444Z" fill="#999999"/>
<path fill-rule="evenodd" clip-rule="evenodd" d="M28.047 33.4873C32.4559 33.4873 36.0301 33.826 36.0301 34.2437C36.0301 34.6614 32.4559 35 28.047 35C23.6381 35 20.064 34.6614 20.064 34.2437C20.064 33.8259 23.6381 33.4873 28.047 33.4873Z" fill="#CAC9C9"/>
<path fill-rule="evenodd" clip-rule="evenodd" d="M27.6094 11.0679L42.7229 17.4832C43.1577 17.6677 43.3625 18.1745 43.1779 18.6093L36.7626 33.7228C36.578 34.1576 36.0713 34.3624 35.6365 34.1778L20.5229 27.7626C20.0881 27.578 19.8834 27.0713 20.0679 26.6365L26.4833 11.5229C26.6678 11.0881 27.1745 10.8834 27.6094 11.0679Z" fill="#921D26"/>
<path fill-rule="evenodd" clip-rule="evenodd" d="M42.3459 18.2905C42.378 18.37 42.38 18.4617 42.344 18.5463L36.138 33.1668C36.0662 33.3362 35.8688 33.4159 35.6994 33.344L21.079 27.138C20.9944 27.1021 20.9321 27.0348 20.9 26.9553L42.3459 18.2905Z" fill="#70161E"/>
<path fill-rule="evenodd" clip-rule="evenodd" d="M27.6213 12.3984L41.7577 18.3989C41.8435 18.4353 41.8839 18.5355 41.8475 18.6212L35.847 32.7576C35.8105 32.8435 35.7104 32.8839 35.6245 32.8475L21.4882 26.847C21.4023 26.8105 21.3619 26.7104 21.3984 26.6245L27.3989 12.4882C27.4353 12.4023 27.5354 12.3618 27.6213 12.3984Z" fill="#D5232B"/>
<path fill-rule="evenodd" clip-rule="evenodd" d="M41.8484 18.4916C41.8647 18.5319 41.8657 18.5783 41.8474 18.6213L35.8469 32.7577C35.8104 32.8436 35.7103 32.884 35.6244 32.8476L21.4882 26.847C21.4453 26.8287 21.4137 26.7946 21.3974 26.7543L41.8484 18.4916Z" fill="#A11F24"/>
<path fill-rule="evenodd" clip-rule="evenodd" d="M39.2521 18.9133L30.4799 23.3354L29.6084 19.4165L39.2521 18.9133Z" fill="white"/>
<path fill-rule="evenodd" clip-rule="evenodd" d="M24.2119 26.4951L32.9841 22.073L33.8556 25.9918L24.2119 26.4951Z" fill="#E6E6E6"/>
<path fill-rule="evenodd" clip-rule="evenodd" d="M30.48 23.3354L32.9841 22.073L33.1686 22.9027L30.4799 23.3354H30.48Z" fill="#B3B3B3"/>
</svg>
